<svg width="30" height="22" viewBox="0 0 30 22" fill="none" xmlns="http://www.w3.org/2000/svg">
<path d="M26.0704 5.32888L19.3622 10.9234L26.0704 16.5178C26.4045 16.792 26.4474 17.2889 26.1732 17.623C26.019 17.8115 25.7962 17.9057 25.5649 17.9057C25.385 17.9057 25.2051 17.8458 25.0595 17.7258L18.1285 11.9514L15.4469 14.1875C15.3013 14.3074 15.1213 14.3674 14.9414 14.3674C14.7615 14.3674 14.5816 14.3074 14.436 14.1875L11.7544 11.9514L4.82341 17.7258C4.67776 17.8458 4.49785 17.9057 4.31794 17.9057C4.09519 17.9057 3.87244 17.8115 3.70966 17.623C3.42693 17.2889 3.47834 16.792 3.81246 16.5178L10.5207 10.9234L3.81246 5.32888C3.47834 5.04616 3.4355 4.55782 3.70966 4.2237C3.98381 3.88957 4.48072 3.84673 4.81484 4.12089L14.9329 12.5511L25.0509 4.12089C25.385 3.83817 25.8819 3.88957 26.1561 4.2237C26.4302 4.55782 26.3874 5.05473 26.0533 5.32888H26.0704ZM29.9 2.45883V19.3707C29.9 20.7244 28.7948 21.8296 27.4412 21.8296H2.45883C1.10519 21.8296 0 20.7244 0 19.3707V2.45883C0 1.10519 1.10519 0 2.45883 0H27.4326C28.7862 0 29.8914 1.10519 29.8914 2.45883H29.9ZM28.3236 2.45883C28.3236 1.97049 27.9295 1.57639 27.4326 1.57639H2.45883C1.97049 1.57639 1.57639 1.97049 1.57639 2.45883V19.3707C1.57639 19.8591 1.97049 20.2532 2.45883 20.2532H27.4326C27.9209 20.2532 28.3236 19.8591 28.3236 19.3707V2.45883Z" fill="white"/>
</svg>
