<svg width="42" height="36" viewBox="0 0 42 36" fill="none" xmlns="http://www.w3.org/2000/svg">
<path d="M9.538 31.6856C9.31674 31.6856 9.09147 31.6141 8.9024 31.4673C8.1783 30.9076 1.83839 25.7597 2.00734 17.738C2.19239 9.17266 9.84775 0 20.9506 0C31.3938 0 39.8939 7.96604 39.8939 17.7619C39.8939 25.8906 33.4615 31.1021 33.1879 31.3204C32.7454 31.6737 32.0938 31.6062 31.7357 31.1656C31.3777 30.729 31.4461 30.086 31.8926 29.7328C32.134 29.5383 37.8262 24.9301 37.8262 17.7619C37.8262 9.09328 30.2553 2.04013 20.9506 2.04013C11.0586 2.04013 4.23597 10.1808 4.07506 17.7817C3.92219 24.9301 9.92418 29.6653 10.1776 29.8637C10.6282 30.213 10.7046 30.852 10.3506 31.2966C10.1454 31.5546 9.84373 31.6856 9.538 31.6856Z" fill="white"/>
<path d="M40.8152 31.7809H32.8018C32.2306 31.7809 31.7679 31.3244 31.7679 30.7608C31.7679 30.1972 32.2306 29.7407 32.8018 29.7407H40.8152C41.3864 29.7407 41.849 30.1972 41.849 30.7608C41.849 31.3244 41.3864 31.7809 40.8152 31.7809Z" fill="white"/>
<path d="M8.78576 31.7809H1.03386C0.46262 31.7809 0 31.3244 0 30.7608C0 30.1972 0.46262 29.7407 1.03386 29.7407H8.78576C9.357 29.7407 9.81962 30.1972 9.81962 30.7608C9.81962 31.3244 9.357 31.7809 8.78576 31.7809Z" fill="white"/>
<path d="M40.8152 35.9999H1.03389C0.47875 35.9999 0.0281982 35.5554 0.0281982 35.0077C0.0281982 34.4599 0.47875 34.0154 1.03389 34.0154H40.8152C41.3704 34.0154 41.8209 34.4599 41.8209 35.0077C41.8209 35.5554 41.3704 35.9999 40.8152 35.9999Z" fill="white"/>
<path d="M32.7414 13.2687C32.4397 13.2965 32.138 13.356 31.8443 13.4394C31.2409 13.5981 30.726 13.8522 30.2795 14.2015C29.8933 14.5031 29.5594 14.7651 29.3985 15.166C29.3824 15.2295 29.3301 15.5113 29.4146 16.8012C29.4588 17.5038 29.499 17.8332 29.5393 18.1547C29.5795 18.4722 29.6157 18.7699 29.6439 19.3097C29.664 19.6987 29.66 19.8416 29.6479 20.2147C29.6358 20.556 29.6157 21.1395 29.5996 22.4096V22.5485C29.5835 23.6678 29.5755 24.2314 29.2416 25.0054C28.9198 25.7516 28.3928 26.4383 27.7532 26.9424C27.3831 27.2321 26.6026 27.7521 25.5165 27.9426C25.1625 28.0061 24.8568 28.014 24.4102 28.014C24.3338 28.014 24.2574 28.014 24.1729 28.014C23.9194 28.014 23.6379 27.9862 22.954 27.9148C22.4511 27.8632 22.1374 27.7282 21.8839 27.6092C20.9466 27.1607 20.5202 26.4065 20.3794 26.1604C20.0978 25.6643 19.9329 25.0927 19.9007 24.5133C19.9007 24.4974 19.9007 24.4815 19.9007 24.4656L19.8564 22.3779V19.5757C19.8564 18.369 19.8122 17.3172 19.7317 16.6901C19.6955 16.4083 19.6794 16.0828 19.6593 15.7375C19.6271 15.1501 19.5869 14.3483 19.4421 13.9355C19.1927 13.233 19.0116 12.9591 18.5691 12.6019C18.537 12.5741 18.4766 12.5503 18.4082 12.5225C18.2715 12.4669 18.0784 12.3876 17.833 12.4074C17.6721 12.4193 17.5554 12.4709 17.5111 12.4908C17.302 12.59 17.1692 12.7607 17.0043 12.9988C16.5738 13.614 16.4733 14.3483 16.4612 14.8524L16.3727 16.8131C16.417 17.7538 16.4451 18.7064 16.4612 19.6431C16.4612 19.7185 16.4733 20.4171 16.3647 21.8301C16.3445 22.0961 16.3043 22.6478 16.067 23.3146C15.9262 23.7115 15.7411 24.0886 15.5118 24.4378C15.2503 24.8348 14.9446 25.1801 14.6027 25.4658C13.8585 26.085 13.0982 26.2795 12.547 26.4224C12.2333 26.5018 11.9155 26.5613 11.5977 26.601C13.9671 29.2603 17.4387 30.9393 21.3127 30.9393C28.4571 30.9393 34.25 25.2237 34.25 18.1746C34.25 16.4242 33.8919 14.7611 33.2483 13.2409C33.0833 13.2409 32.9184 13.2449 32.7575 13.2608L32.7414 13.2687Z" fill="white"/>
<path d="M11.7224 23.3504C12.1609 23.2393 12.3419 23.1798 12.5149 23.0369C12.6637 22.9099 12.7643 22.759 12.8005 22.7074C12.889 22.5725 12.9614 22.4217 13.0177 22.2669C13.1143 21.993 13.1304 21.7707 13.1425 21.5921C13.239 20.326 13.231 19.6988 13.231 19.6949C13.2149 18.7661 13.1827 17.8175 13.1384 16.8847C13.1384 16.8371 13.1384 16.7895 13.1384 16.7418L13.231 14.7454C13.2511 13.8444 13.4603 12.4552 14.3412 11.193C14.5907 10.8318 15.1176 10.0816 16.1314 9.61328C16.4371 9.47039 16.9319 9.29178 17.5554 9.24018C18.5813 9.15683 19.3416 9.47039 19.595 9.57358C19.8042 9.65694 20.1864 9.81173 20.5886 10.1372C21.6466 10.9826 22.0932 11.8161 22.4713 12.8878C22.769 13.7293 22.8253 14.7533 22.8655 15.5749C22.8816 15.8607 22.8937 16.1306 22.9138 16.2973C23.0103 17.0633 23.0626 18.2263 23.0626 19.5798V22.3462L23.1069 24.3665C23.1149 24.4538 23.1391 24.5372 23.1793 24.6086C23.1954 24.6404 23.2477 24.7317 23.2839 24.7555H23.296C23.7264 24.8031 24.0804 24.8389 24.1729 24.8428C24.6195 24.8428 24.8206 24.8428 24.9373 24.823C25.3476 24.7515 25.6533 24.5293 25.7338 24.4658C25.8424 24.3824 26.1079 24.1443 26.2688 23.7712C26.3452 23.5925 26.3573 23.4616 26.3694 22.5129V22.374C26.3895 21.0682 26.4096 20.4688 26.4217 20.1196C26.4337 19.7703 26.4337 19.7425 26.4217 19.4924C26.3975 19.0558 26.3694 18.8296 26.3332 18.5438C26.2889 18.1945 26.2406 17.8016 26.1924 17.0117C26.0757 15.182 26.1562 14.6104 26.3895 14.023C26.8642 12.8243 27.7411 12.1337 28.2681 11.7209C29.0606 11.0977 29.9698 10.6492 30.9674 10.3873C31.1163 10.3436 31.2772 10.3118 31.4381 10.2761C29.0687 7.32309 25.4039 5.42188 21.2886 5.42188C14.1441 5.42188 8.35132 11.1374 8.35132 18.1866C8.35132 20.0084 8.74153 21.739 9.43747 23.3068C9.82768 23.4179 10.2219 23.4814 10.6202 23.4854C10.9983 23.4854 11.3604 23.4457 11.7144 23.3544L11.7224 23.3504Z" fill="white"/>
</svg>
