<svg width="23" height="16" viewBox="0 0 23 16" fill="none" xmlns="http://www.w3.org/2000/svg">
<path d="M20.0542 3.90581L14.894 8.00628L20.0542 12.1068C20.3112 12.3077 20.3441 12.6719 20.1332 12.9168C20.0146 13.0549 19.8433 13.124 19.6653 13.124C19.5269 13.124 19.3885 13.0801 19.2765 12.9922L13.945 8.75981L11.8822 10.3987C11.7702 10.4867 11.6318 10.5306 11.4934 10.5306C11.355 10.5306 11.2166 10.4867 11.1046 10.3987L9.04183 8.75981L3.71032 12.9922C3.59828 13.0801 3.45989 13.124 3.32149 13.124C3.15014 13.124 2.9788 13.0549 2.85358 12.9168C2.6361 12.6719 2.67564 12.3077 2.93266 12.1068L8.09284 8.00628L2.93266 3.90581C2.67564 3.69859 2.64269 3.34066 2.85358 3.09576C3.06447 2.85086 3.4467 2.81947 3.70372 3.02041L11.4868 9.19937L19.2699 3.02041C19.5269 2.81319 19.9092 2.85086 20.1201 3.09576C20.3309 3.34066 20.298 3.70487 20.041 3.90581H20.0542ZM23 1.8022V14.1978C23 15.19 22.1499 16 21.1086 16H1.8914C0.850143 16 0 15.19 0 14.1978V1.8022C0 0.810047 0.850143 0 1.8914 0H21.102C22.1433 0 22.9934 0.810047 22.9934 1.8022H23ZM21.7874 1.8022C21.7874 1.44427 21.4842 1.15542 21.102 1.15542H1.8914C1.51576 1.15542 1.21261 1.44427 1.21261 1.8022V14.1978C1.21261 14.5557 1.51576 14.8446 1.8914 14.8446H21.102C21.4777 14.8446 21.7874 14.5557 21.7874 14.1978V1.8022Z" fill="#008000"/>
</svg>
