<svg width="37" height="37" viewBox="0 0 37 37" fill="none" xmlns="http://www.w3.org/2000/svg">
<rect x="37" y="1.61732e-06" width="37" height="37" rx="18.5" transform="rotate(90 37 1.61732e-06)" fill="white"/>
<path d="M16.8699 26.0067V9.66267C16.8699 8.7482 17.6182 8 18.5326 8C19.4471 8 20.1953 8.7482 20.1953 9.66267V26.0067C20.1953 26.9211 19.4471 27.6693 18.5326 27.6693C17.6182 27.6693 16.8699 26.9211 16.8699 26.0067Z" fill="#008000"/>
<path d="M10.252 20.7362C10.252 20.3039 10.4182 19.8882 10.7341 19.5557C11.3826 18.9072 12.4301 18.9072 13.0785 19.5557L18.5155 24.9926L23.9525 19.5557C24.6009 18.9072 25.6484 18.9072 26.2969 19.5557C26.9453 20.2041 26.9453 21.2516 26.2969 21.9L19.6794 28.5174C19.3635 28.8333 18.9478 28.9996 18.4989 28.9996C18.05 28.9996 17.6343 28.8167 17.3184 28.5174L10.7009 21.9C10.3684 21.5675 10.2187 21.1518 10.2187 20.7195L10.252 20.7362Z" fill="#008000"/>
</svg>
