<svg width="300" height="44" viewBox="0 0 300 44" fill="none" xmlns="http://www.w3.org/2000/svg">
<g clip-path="url(#clip0_117_1125)">
<path d="M11.4455 38.5367C11.18 38.5367 10.9097 38.4498 10.6828 38.2712C9.81391 37.5905 2.20602 31.3295 2.40876 21.5734C2.63082 11.156 11.8173 0 25.1407 0C37.6725 0 47.8727 9.68848 47.8727 21.6024C47.8727 31.4888 40.1538 37.8271 39.8255 38.0926C39.2945 38.5222 38.5125 38.4401 38.0828 37.9043C37.6532 37.3733 37.7353 36.5913 38.2711 36.1616C38.5607 35.9251 45.3914 30.3205 45.3914 21.6024C45.3914 11.0594 36.3064 2.48125 25.1407 2.48125C13.2703 2.48125 5.08311 12.3821 4.89002 21.6265C4.70658 30.3205 11.909 36.0796 12.2131 36.3209C12.7538 36.7457 12.8455 37.5229 12.4207 38.0636C12.1745 38.3774 11.8124 38.5367 11.4455 38.5367Z" fill="#008000"/>
<path d="M48.9783 38.6525H39.3622C38.6767 38.6525 38.1216 38.0974 38.1216 37.4119C38.1216 36.7264 38.6767 36.1713 39.3622 36.1713H48.9783C49.6638 36.1713 50.2189 36.7264 50.2189 37.4119C50.2189 38.0974 49.6638 38.6525 48.9783 38.6525Z" fill="#008000"/>
<path d="M10.5429 38.6525H1.24063C0.555144 38.6525 0 38.0974 0 37.4119C0 36.7264 0.555144 36.1713 1.24063 36.1713H10.5429C11.2284 36.1713 11.7835 36.7264 11.7835 37.4119C11.7835 38.0974 11.2284 38.6525 10.5429 38.6525Z" fill="#008000"/>
<path d="M48.9781 43.784H1.24053C0.574354 43.784 0.0336914 43.2434 0.0336914 42.5772C0.0336914 41.911 0.574354 41.3704 1.24053 41.3704H48.9781C49.6443 41.3704 50.1849 41.911 50.1849 42.5772C50.1849 43.2434 49.6443 43.784 48.9781 43.784Z" fill="#008000"/>
<path d="M39.2897 16.1377C38.9277 16.1715 38.5656 16.2439 38.2132 16.3453C37.4891 16.5384 36.8712 16.8474 36.3354 17.2722C35.872 17.639 35.4713 17.9577 35.2782 18.4452C35.2589 18.5225 35.1962 18.8652 35.2975 20.4341C35.3506 21.2885 35.3989 21.6892 35.4472 22.0802C35.4955 22.4664 35.5389 22.8284 35.5727 23.485C35.5968 23.958 35.592 24.1318 35.5775 24.5856C35.563 25.0007 35.5389 25.7104 35.5196 27.2551V27.4241C35.5003 28.7854 35.4906 29.4709 35.09 30.4122C34.7038 31.3197 34.0714 32.1549 33.3038 32.7679C32.8597 33.1203 31.9232 33.7527 30.6198 33.9844C30.195 34.0617 29.8282 34.0713 29.2923 34.0713C29.2006 34.0713 29.1089 34.0713 29.0075 34.0713C28.7034 34.0713 28.3655 34.0375 27.5448 33.9506C26.9414 33.8879 26.5649 33.7238 26.2607 33.5789C25.136 33.0334 24.6243 32.1162 24.4553 31.817C24.1174 31.2135 23.9195 30.5184 23.8809 29.8136C23.8809 29.7943 23.8809 29.775 23.8809 29.7557L23.8278 27.2165V23.8084C23.8278 22.3409 23.7747 21.0616 23.6781 20.2989C23.6347 19.9562 23.6154 19.5603 23.5912 19.1404C23.5526 18.4259 23.5043 17.4508 23.3306 16.9487C23.0313 16.0943 22.814 15.7612 22.283 15.3268C22.2444 15.293 22.172 15.264 22.0899 15.2302C21.9258 15.1626 21.6941 15.0661 21.3996 15.0902C21.2065 15.1047 21.0665 15.1674 21.0134 15.1916C20.7624 15.3123 20.6031 15.5198 20.4052 15.8095C19.8887 16.5577 19.768 17.4508 19.7535 18.0639L19.6473 20.4486C19.7004 21.5926 19.7342 22.7512 19.7535 23.8905C19.7535 23.9822 19.768 24.8318 19.6376 26.5503C19.6135 26.8738 19.5652 27.5448 19.2804 28.3557C19.1115 28.8385 18.8894 29.2971 18.6142 29.7219C18.3005 30.2046 17.9336 30.6246 17.5233 30.9722C16.6302 31.7252 15.7178 31.9618 15.0565 32.1356C14.68 32.2321 14.2986 32.3045 13.9172 32.3528C16.7605 35.5871 20.9265 37.6291 25.5753 37.6291C34.1486 37.6291 41.1 30.6777 41.1 22.1043C41.1 19.9755 40.6704 17.9528 39.898 16.104C39.7001 16.104 39.5021 16.1088 39.3091 16.1281L39.2897 16.1377Z" fill="#008000"/>
<path d="M14.0668 28.3992C14.593 28.2641 14.8102 28.1916 15.0178 28.0179C15.1964 27.8634 15.3171 27.6799 15.3605 27.6172C15.4667 27.4531 15.5536 27.2696 15.6212 27.0814C15.7371 26.7483 15.7564 26.4779 15.7708 26.2607C15.8867 24.7208 15.877 23.9581 15.877 23.9532C15.8577 22.8236 15.8191 21.6699 15.766 20.5355C15.766 20.4776 15.766 20.4196 15.766 20.3617L15.877 17.9335C15.9012 16.8377 16.1522 15.1482 17.2094 13.6131C17.5087 13.1738 18.1411 12.2614 19.3576 11.6918C19.7244 11.518 20.3182 11.3008 21.0664 11.238C22.2974 11.1366 23.2098 11.518 23.5139 11.6435C23.7649 11.7449 24.2235 11.9332 24.7063 12.329C25.9759 13.3572 26.5117 14.371 26.9655 15.6743C27.3227 16.6977 27.3903 17.9432 27.4385 18.9425C27.4578 19.29 27.4723 19.6183 27.4965 19.821C27.6123 20.7527 27.6751 22.1671 27.6751 23.8132V27.1779L27.7282 29.635C27.7378 29.7412 27.7668 29.8426 27.8151 29.9295C27.8344 29.9681 27.8971 30.0791 27.9406 30.1081H27.9551C28.4716 30.166 28.8964 30.2095 29.0074 30.2143C29.5433 30.2143 29.7846 30.2143 29.9246 30.1902C30.417 30.1033 30.7839 29.8329 30.8804 29.7557C31.0108 29.6543 31.3294 29.3647 31.5225 28.9109C31.6142 28.6937 31.6287 28.5344 31.6432 27.3806V27.2117C31.6673 25.6235 31.6914 24.8946 31.7059 24.4698C31.7204 24.045 31.7204 24.0112 31.7059 23.707C31.6769 23.176 31.6431 22.9009 31.5997 22.5533C31.5466 22.1285 31.4887 21.6506 31.4307 20.69C31.2908 18.4645 31.3873 17.7694 31.6673 17.055C32.2369 15.5971 33.2893 14.7572 33.9217 14.2551C34.8726 13.4972 35.9636 12.9517 37.1608 12.6331C37.3394 12.58 37.5325 12.5414 37.7256 12.498C34.8823 8.90641 30.4846 6.59412 25.5462 6.59412C16.9729 6.59412 10.0215 13.5455 10.0215 22.1188C10.0215 24.3346 10.4897 26.4393 11.3249 28.3461C11.7931 28.4813 12.2662 28.5585 12.7441 28.5633C13.1979 28.5633 13.6323 28.5151 14.0571 28.404L14.0668 28.3992Z" fill="#008000"/>
<path d="M71.2271 26.8642H75.171C76.0738 26.8642 76.5951 27.2745 76.5951 28.2352C76.5951 29.1379 75.9917 29.4951 75.171 29.4951H71.2271V32.3722C71.9126 32.3191 73.2835 32.1791 74.1573 32.0729C74.7607 31.9909 75.3352 31.9378 75.6634 31.9378C76.4841 31.9378 76.8703 32.4832 76.8703 33.2798C76.8703 33.9363 76.6241 34.2935 76.1317 34.4576C75.7214 34.5928 75.089 34.6749 74.4614 34.7569C72.6512 35.0031 65.7239 35.7176 64.1599 35.7176C63.2572 35.7176 62.8179 35.1721 62.8179 34.2645C62.8179 33.5501 63.1992 33.0577 63.9426 32.9515C64.575 32.8694 65.1205 32.8694 65.8881 32.8163C66.7908 32.7632 67.6693 32.7053 68.601 32.6232V29.4999H64.6861C63.7833 29.4999 63.2909 29.0896 63.2909 28.129C63.2909 27.2263 63.8654 26.869 64.6861 26.869H68.601V24.5954H66.4384C64.464 24.5954 63.6723 23.7989 63.6723 21.8293V15.0372C63.6723 13.0918 64.4688 12.3001 66.4384 12.3001H73.4525C75.4269 12.3001 76.2186 13.0966 76.2186 15.0372V21.8293C76.2186 23.8037 75.4221 24.5954 73.4525 24.5954H71.2319V26.869L71.2271 26.8642ZM68.5962 17.3833V14.7283H66.7859C66.3225 14.7283 66.0184 15.0034 66.0184 15.4958V17.3881H68.5914L68.5962 17.3833ZM66.0232 21.4383C66.0232 21.9307 66.3225 22.2058 66.7908 22.2058H68.601V19.4108H66.0281V21.4383H66.0232ZM73.8821 15.4958C73.8821 15.0034 73.607 14.7283 73.1436 14.7283H71.2271V17.3833H73.8821V15.491V15.4958ZM71.2271 19.4108V22.2058H73.1436C73.607 22.2058 73.8821 21.9307 73.8821 21.4383V19.4108H71.2271ZM79.337 18.9474C79.2019 18.8363 78.8736 18.6191 78.7046 18.5081C78.2654 18.2088 78.0192 17.9336 78.0192 17.4654C78.0192 16.7509 78.7047 16.1523 79.3901 16.1523C79.9646 16.1523 81.2535 17.0551 82.2962 17.8516C82.6245 17.5233 83.6382 16.5096 84.1885 15.742C84.3816 15.4958 84.4878 15.2496 84.4878 15.1096C84.4878 14.7814 84.1306 14.7524 83.8844 14.7524H78.3764C77.4978 14.7524 77.1165 14.3421 77.1165 13.4635C77.1165 12.6429 77.5799 12.2856 78.3764 12.2856H85.2795C86.5925 12.2856 87.7173 12.5849 87.7173 14.149C87.7173 14.6945 87.5532 15.2158 87.1959 15.7903C86.3994 17.0792 85.0043 18.4212 84.1547 19.2708C84.7581 19.7342 85.1685 20.0915 85.1685 20.6659C85.1685 20.859 85.1154 21.0231 85.0333 21.1873H85.6367C87.1718 21.1873 88.3497 21.4335 88.3497 23.2147C88.3497 24.4457 87.9394 25.6815 87.529 26.8594C87.3359 27.4097 87.1477 28.0373 86.9546 28.4186C86.7084 28.882 86.5153 29.1331 85.9698 29.1331C85.3664 29.1331 84.5988 28.8048 84.5988 28.1193C84.5988 27.8731 84.734 27.4049 84.9802 26.8594C85.1443 26.478 85.5016 25.6284 85.7188 24.9671C85.8298 24.6678 85.8829 24.4216 85.8829 24.2526C85.8829 23.8713 85.4436 23.8133 85.1443 23.8133H83.6382V33.6756C83.6382 36.6879 82.4072 36.7989 79.7763 36.7989H79.0377C77.8068 36.7989 76.8172 36.6637 76.8172 35.2107C76.8172 34.308 77.2275 33.8977 78.2123 33.8977C78.7047 33.8977 79.226 33.9266 79.7184 33.9266C80.6211 33.9266 80.9252 33.6273 80.9252 32.7777V23.8182H77.7488C76.7882 23.8182 76.4599 23.3547 76.4599 22.4472C76.4599 21.5976 76.9234 21.1873 77.7488 21.1873H82.1321C81.2535 20.3666 80.3797 19.7101 79.337 18.9425V18.9474Z" fill="white"/>
<path d="M103.334 25.7104C103.58 26.0387 103.797 26.3959 103.797 26.8352C103.797 27.5496 103.165 28.2882 102.426 28.2882C101.688 28.2882 101.359 27.4386 101.031 26.9173C100.539 26.0966 100.071 25.276 99.6361 24.4264V35.7127C99.6361 36.6975 99.1968 37.1367 98.212 37.1367C97.3093 37.1367 96.9231 36.5913 96.9231 35.7127V24.5084C96.2908 26.0966 95.5811 27.6848 94.7026 29.1378C94.3743 29.7123 93.853 30.5088 93.1675 30.5088C92.371 30.5088 91.7434 29.6592 91.7434 28.8916C91.7434 28.6455 91.7965 28.3703 91.9365 28.1531C92.3468 27.4676 92.9792 26.7 93.4426 26.0435C94.9198 24.0691 95.9915 21.6072 96.7301 19.2514H93.3606C92.4579 19.2514 91.9896 18.8122 91.9896 17.9384C91.9896 17.0647 92.453 16.5674 93.3606 16.5674H96.9231V12.6525C96.9231 11.6918 97.3866 11.2284 98.3472 11.2284C99.2499 11.2284 99.6361 11.8029 99.6361 12.6525V16.5674H102.677C103.58 16.5674 104.019 17.0598 104.019 17.9625C104.019 18.8653 103.527 19.2514 102.677 19.2514H99.6361V20.048C100.679 22.0754 101.963 23.9098 103.334 25.7201V25.7104ZM114.731 33.7383C114.731 34.7231 114.567 35.9299 113.606 36.3933C112.757 36.8037 111.251 36.8037 109.745 36.8037C109.112 36.8037 107.688 36.7747 107.36 36.6395C106.867 36.4223 106.674 35.7899 106.674 35.2686C106.674 34.3079 107.22 33.8976 108.127 33.8976C108.924 33.8976 109.687 33.9507 110.483 33.9507C111.28 33.9507 111.796 33.6755 111.796 32.8018V19.517H105.743C104.758 19.517 104.401 18.9425 104.401 18.0108C104.401 17.1612 104.893 16.6978 105.743 16.6978H111.796V12.6428C111.796 11.576 112.342 11.2188 113.384 11.2188C114.316 11.2188 114.726 11.7401 114.726 12.6428V16.6978H116.397C117.381 16.6978 117.657 17.3012 117.657 18.175C117.657 19.0487 117.275 19.517 116.397 19.517H114.726V33.7335L114.731 33.7383ZM106.457 22.0948C106.896 22.0948 107.254 22.2589 107.5 22.6451C107.939 23.2774 108.267 24.016 108.596 24.7015C109.199 25.8794 110.102 27.8248 110.102 28.6165C110.102 29.4661 109.281 29.9585 108.514 29.9585C107.746 29.9585 107.529 29.5482 106.872 27.902C106.491 26.9173 106.076 25.9566 105.612 25.0249C105.173 24.2284 104.956 23.794 104.956 23.3257C104.956 22.5582 105.752 22.0948 106.462 22.0948H106.457Z" fill="white"/>
<path d="M135.445 33.7384H145.525C146.403 33.7384 146.949 34.0956 146.949 35.0273C146.949 35.9589 146.427 36.4224 145.496 36.4224H135.006C131.801 36.4224 128.542 35.79 126.046 33.6853C125.472 34.5638 124.786 35.3845 124.072 36.152C123.715 36.5334 123.333 36.8665 122.812 36.8665C122.016 36.8665 121.253 36.1279 121.253 35.3072C121.253 34.8438 121.552 34.5107 121.856 34.2114C122.706 33.3618 123.526 32.5122 124.159 31.4743C123.526 30.5427 122.624 28.6552 122.184 27.0911C122.049 26.5456 121.938 26.0243 121.938 25.6139C121.938 24.9574 122.513 24.5471 123.169 24.5471C124.019 24.5471 124.183 25.0395 124.318 25.7539C124.535 26.7677 124.893 27.7525 125.332 28.6841C125.713 27.5063 126.182 25.3436 126.182 24.1078C126.182 23.5865 125.853 23.3403 125.361 23.3403H123.908C122.648 23.3403 121.716 22.9299 121.716 21.5059C121.716 20.4632 122.431 19.4253 123.797 17.644C124.072 17.2626 125.25 15.6165 125.25 15.2883C125.25 15.0131 125.004 14.9069 124.757 14.9069H122.513C121.61 14.9069 121.2 14.4676 121.2 13.5649C121.2 12.7153 121.692 12.305 122.513 12.305H126.515C127.089 12.305 127.557 12.3339 127.992 12.6622C128.431 12.9904 128.624 13.5118 128.624 14.0042C128.624 14.7717 128.378 15.5393 128.021 16.1958C127.306 17.5668 126.239 18.8798 125.284 20.0866C125.202 20.1977 125.12 20.3618 125.12 20.497C125.12 20.7963 125.501 20.7963 125.723 20.7963H126.408C127.968 20.7963 128.764 21.3707 128.764 23.0168C128.764 25.7298 128.161 28.771 127.229 31.315C129.368 33.4246 132.597 33.7528 135.445 33.7528V33.7384ZM142.319 13.2511C144.429 13.2511 145.003 13.8256 145.003 15.9351V17.084H145.853C146.62 17.084 146.896 17.5475 146.896 18.2909C146.896 18.9474 146.514 19.3867 145.853 19.3867H145.003V20.4535C145.003 22.5631 144.429 23.1375 142.319 23.1375H138.704V24.5905H144.593C145.332 24.5905 145.742 24.9188 145.742 25.6863C145.742 26.4008 145.25 26.7001 144.593 26.7001H138.704V28.4814H145.525C146.374 28.4814 146.756 28.8386 146.756 29.6882C146.756 30.5378 146.292 30.784 145.525 30.784H138.704V32.3722C138.704 33.2749 138.047 33.468 137.28 33.468C136.594 33.468 136.02 33.1108 136.02 32.3722V30.784H129.937C129.088 30.784 128.706 30.4558 128.706 29.6062C128.706 28.7565 129.17 28.4814 129.937 28.4814H136.02V26.7001H130.787C130.019 26.7001 129.638 26.3718 129.638 25.5753C129.638 24.8898 130.159 24.5905 130.787 24.5905H136.02V23.1375H131.337C130.57 23.1375 130.241 22.8382 130.241 22.0707C130.241 21.3031 130.652 21.0859 131.337 21.0859H136.02V19.3867H129.966C129.146 19.3867 128.706 19.0584 128.706 18.2088C128.706 17.3592 129.199 17.084 129.966 17.084H136.02V15.3848H131.39C130.594 15.3848 130.241 15.0276 130.241 14.2359C130.241 13.5504 130.763 13.2511 131.39 13.2511H136.02V12.3725C136.02 11.4409 136.594 11.2236 137.473 11.2236C138.269 11.2236 138.704 11.5519 138.704 12.3484V13.2511H142.319ZM138.704 17.084H142.512V16.0413C142.512 15.5779 142.213 15.2738 141.745 15.2738H138.704V17.084ZM138.704 21.1921H141.745C142.208 21.1921 142.512 20.8928 142.512 20.4245V19.3818H138.704V21.1921Z" fill="white"/>
<path d="M164.868 32.7535H174.701C175.768 32.7535 176.125 33.2459 176.125 34.2597C176.125 35.1913 175.604 35.6017 174.701 35.6017H151.853C150.811 35.6017 150.429 35.1093 150.429 34.0955C150.429 33.1349 150.951 32.7535 151.853 32.7535H161.744V15.9061H152.896C151.853 15.9061 151.472 15.3848 151.472 14.4C151.472 13.4152 151.993 13.058 152.896 13.058H173.745C174.812 13.058 175.169 13.5504 175.169 14.5641C175.169 15.4958 174.648 15.9061 173.745 15.9061H164.868V32.7535Z" fill="white"/>
<path d="M189.468 25.4643C189.685 25.7394 189.849 26.0677 189.849 26.396C189.849 27.0525 189.275 27.709 188.589 27.709C187.547 27.709 186.533 25.2712 186.181 24.4216V35.7369C186.181 36.6975 185.741 37.132 184.757 37.132C183.854 37.132 183.526 36.5575 183.526 35.7369V26.0387C183.086 27.2987 182.019 30.3109 180.731 30.3109C179.934 30.3109 179.335 29.4082 179.335 28.6696C179.335 28.0952 179.664 27.6028 179.992 27.1635C181.662 24.7788 182.787 22.0948 183.497 19.2998H181.112C180.151 19.2998 179.717 18.8605 179.717 17.8757C179.717 16.973 180.262 16.5868 181.112 16.5868H183.521V12.6718C183.521 11.7402 183.931 11.2767 184.892 11.2767C185.794 11.2767 186.181 11.8222 186.181 12.6718V16.5868H187.991C188.952 16.5868 189.251 17.1371 189.251 18.0109C189.251 18.8846 188.84 19.2998 187.991 19.2998H186.181V20.3956C187.165 22.5051 187.991 23.683 189.468 25.4643ZM204.703 31.986C205.196 32.4253 205.553 32.8067 205.553 33.3811C205.553 34.1197 204.867 35.0804 204.047 35.0804C202.922 35.0804 201.227 32.5894 200.624 31.7109C199.745 30.422 199.036 29.1089 198.432 27.709V35.7079C198.432 36.6927 197.969 37.132 197.008 37.132C196.048 37.132 195.695 36.5865 195.695 35.7079V27.6269C194.793 29.4903 193.697 31.2426 192.355 32.8067C191.669 33.6563 190.52 35.0514 189.642 35.0514C188.763 35.0514 188.083 34.2018 188.083 33.3811C188.083 32.8356 188.493 32.4205 188.879 32.0681C190.66 30.533 191.891 29.162 193.209 27.1925C193.755 26.3718 194.252 25.5222 194.662 24.6195H189.922C188.961 24.6195 188.498 24.1802 188.498 23.2244C188.498 22.3217 189.072 21.9645 189.922 21.9645H195.7V18.2957H192.442C192.084 19.0101 191.703 19.7198 191.264 20.3763C190.989 20.7576 190.631 21.1149 190.139 21.1149C189.425 21.1149 188.686 20.4825 188.686 19.7729C188.686 19.3336 188.961 18.9763 189.207 18.6481C190.496 16.9199 191.071 15.1965 191.563 13.116C191.698 12.4594 191.973 11.8271 192.77 11.8271C193.402 11.8271 194.112 12.2374 194.112 12.9518C194.112 13.8014 193.755 14.7862 193.509 15.6069H195.7V12.7008C195.7 11.7402 196.164 11.2767 197.153 11.2767C198.056 11.2767 198.442 11.8512 198.442 12.7008V15.6069H203.347C204.307 15.6069 204.742 16.0461 204.742 17.0309C204.742 17.9336 204.191 18.2909 203.347 18.2909H198.442V21.9596H204.032C204.993 21.9596 205.456 22.37 205.456 23.3547C205.456 24.2575 204.911 24.6147 204.032 24.6147H199.432C200.639 27.4097 202.502 29.9296 204.718 31.986H204.703Z" fill="white"/>
<path d="M222.593 31.3826C223.361 31.3826 223.718 32.0971 223.718 32.8067C223.718 34.1487 222.323 34.1776 221.116 34.4238C218.514 34.9693 215.83 35.4086 213.17 35.7658C212.321 35.8769 210.95 36.1231 210.1 36.1231C209.251 36.1231 208.811 35.3024 208.811 34.5059C208.811 33.6563 209.275 33.2749 210.1 33.1639C211.606 32.9467 213.141 32.8356 214.676 32.6425V24.9719H210.815C209.854 24.9719 209.42 24.5085 209.42 23.5478C209.42 22.6451 209.941 22.2348 210.815 22.2348H221.444C222.405 22.2348 222.84 22.6982 222.84 23.6589C222.84 24.5616 222.318 24.9719 221.444 24.9719H217.583V32.2322C218.543 32.0681 221.937 31.3826 222.593 31.3826ZM223.139 12.947C223.139 11.8512 223.52 11.3298 224.674 11.3298C225.828 11.3298 226.18 11.8802 226.18 12.9711V13.3815C226.18 14.2311 226.18 15.0517 226.209 15.9013H233.165C234.097 15.9013 234.589 16.3648 234.589 17.2964C234.589 18.2281 234.039 18.6384 233.165 18.6384H226.262C226.315 22.4713 226.701 26.6373 228.125 30.253C228.483 31.1847 229.603 33.5404 230.756 33.5404C231.635 33.5404 231.905 32.3915 232.127 31.4309C232.32 30.6344 232.538 29.9779 233.498 29.9779C234.237 29.9779 234.811 30.4171 234.811 31.2088C234.811 32.3577 234.208 33.9749 233.662 34.9886C233.088 36.0555 232.156 36.9051 230.896 36.9051C228.594 36.9051 227.006 34.6845 226.05 32.8501C223.887 28.7131 223.559 23.2341 223.284 18.6336H210.298C209.337 18.6336 208.874 18.1702 208.874 17.2095C208.874 16.3068 209.424 15.8965 210.298 15.8965H223.202C223.173 14.9117 223.148 13.9221 223.148 12.9373L223.139 12.947ZM231.63 12.7539C232.234 13.2753 232.919 13.8787 232.919 14.5883C232.919 15.3558 231.987 15.7951 231.331 15.7951C230.481 15.7951 229.496 14.6173 228.893 14.0669C228.43 13.6566 228.014 13.2463 228.014 12.7249C228.014 11.9864 228.811 11.5181 229.492 11.5181C230.23 11.5181 231.08 12.2567 231.63 12.7491V12.7539Z" fill="white"/>
<path d="M239.47 21.9065C238.591 21.9065 238.074 20.9459 238.074 20.1783C238.074 19.3287 238.62 19.0294 239.334 18.7543C243.225 17.3012 245.909 15.0565 248.704 12.1263C249.39 11.3877 249.964 11.0305 251.007 11.0305C252.238 11.0305 252.788 11.576 253.831 12.6718C256.515 15.4668 259.064 17.3543 262.733 18.8605C263.389 19.1356 263.939 19.4639 263.939 20.2314C263.939 21.0521 263.336 21.9596 262.462 21.9596C261.588 21.9596 259.257 20.5645 258.407 20.0432C258.407 20.9748 257.886 21.3852 257.012 21.3852H245.151C244.302 21.3852 243.727 21.0279 243.727 20.1252V19.9611C242.52 20.6755 240.411 21.9065 239.479 21.9065H239.47ZM247.087 35.7948C244.731 35.9299 240.981 36.152 240.401 36.152C239.441 36.152 238.948 35.6307 238.948 34.6748C238.948 34.0183 239.248 33.3859 239.962 33.3328C240.865 33.2508 241.796 33.2508 242.699 33.2508C243.848 31.2523 245.026 29.1958 245.769 27.0332H240.073C239.112 27.0332 238.649 26.5697 238.649 25.6091C238.649 24.7064 239.223 24.2961 240.073 24.2961H261.878C262.839 24.2961 263.302 24.7595 263.302 25.7201C263.302 26.6808 262.728 27.0332 261.878 27.0332H249.004C248.101 29.1427 247.005 31.1702 245.851 33.1397C249.66 33.0046 253.411 32.7825 257.249 32.5363C256.51 31.6577 255.743 30.8371 254.975 30.0454C254.676 29.7172 254.372 29.3599 254.372 28.8965C254.372 28.1579 255.192 27.5545 255.907 27.5545C256.399 27.5545 256.785 27.8538 257.138 28.1869C258.04 29.0365 258.89 29.9392 259.711 30.8709C260.449 31.6915 262.781 34.2935 262.781 35.3072C262.781 36.1568 261.767 36.8134 261 36.8134C260.425 36.8134 260.097 36.432 259.851 35.9927C259.633 35.6113 259.387 35.2541 259.112 34.8969C255.11 35.2541 251.113 35.5534 247.087 35.7996V35.7948ZM256.534 18.7832C254.7 17.4943 252.783 15.7951 251.548 14.289C251.383 14.0717 251.248 13.9897 251.026 13.9897C250.804 13.9897 250.645 14.1538 250.312 14.54C249.081 15.9641 247.271 17.6102 245.518 18.7881H256.529L256.534 18.7832Z" fill="white"/>
<path d="M274.453 35.6307C274.453 36.7265 273.932 37.0547 272.894 37.0547C271.962 37.0547 271.581 36.5044 271.581 35.6307V26.6711C270.731 27.4387 269.5 28.5345 268.651 28.5345C267.854 28.5345 267.198 27.6559 267.198 26.8932C267.198 26.647 267.251 26.4008 267.391 26.1787C267.748 25.6284 269.119 24.8078 269.693 24.3974C271.504 23.1085 273.092 21.4093 274.27 19.4929C274.569 18.9715 274.627 18.8605 274.627 18.6722C274.627 18.2088 274.135 18.2088 273.806 18.2088H268.878C267.946 18.2088 267.425 17.7985 267.425 16.8378C267.425 15.9351 268.028 15.5779 268.878 15.5779H271.562V12.6477C271.562 11.605 272.083 11.2236 273.097 11.2236C274.028 11.2236 274.439 11.745 274.439 12.6477V15.5779H275.341C276.737 15.5779 277.779 16.0992 277.779 17.6585C277.779 19.4929 276.326 21.4093 275.23 22.8382C276.109 23.9051 277.147 24.8367 278.19 25.7684C278.465 26.0146 278.735 26.3429 278.735 26.7532C278.735 27.4676 278.079 28.2062 277.364 28.2062C276.321 28.2062 275.037 26.2608 274.458 25.4933V35.6307H274.453ZM291.001 18.7833C292.015 18.7833 292.479 19.2756 292.479 20.2894C292.479 21.25 291.904 21.6603 291.001 21.6603H286.618V33.3039H291.494C292.508 33.3039 293 33.7432 293 34.7569C293 35.7176 292.396 36.0989 291.494 36.0989H278.455C277.441 36.0989 276.838 35.7176 276.838 34.6459C276.838 33.6322 277.552 33.3039 278.455 33.3039H283.635V21.6603H279.551C278.537 21.6603 278.098 21.168 278.098 20.1542C278.098 19.2225 278.648 18.7833 279.551 18.7833H283.635V12.7008C283.635 11.605 284.209 11.2478 285.223 11.2478C286.184 11.2478 286.618 11.7691 286.618 12.7008V18.7833H291.001Z" fill="white"/>
</g>
<defs>
<clipPath id="clip0_117_1125">
<rect width="300" height="43.784" fill="white"/>
</clipPath>
</defs>
</svg>
