<svg width="163" height="142" viewBox="0 0 163 142" fill="none" xmlns="http://www.w3.org/2000/svg">
<path d="M37.1202 124.982C36.2592 124.982 35.3824 124.7 34.6466 124.121C31.8285 121.913 7.15467 101.607 7.81222 69.9666C8.5324 36.181 38.3258 0 81.5363 0C122.179 0 155.26 31.4216 155.26 70.0606C155.26 102.124 130.226 122.68 129.162 123.541C127.44 124.935 124.903 124.669 123.51 122.931C122.117 121.209 122.383 118.672 124.121 117.279C125.06 116.512 147.213 98.3353 147.213 70.0606C147.213 35.8679 117.749 8.04718 81.5363 8.04718C43.0382 8.04718 16.4856 40.1576 15.8594 70.1388C15.2645 98.3353 38.6232 117.013 39.6095 117.796C41.363 119.173 41.6605 121.694 40.2827 123.447C39.4843 124.465 38.3101 124.982 37.1202 124.982Z" fill="#008000"/>
<path d="M158.846 125.358H127.659C125.436 125.358 123.636 123.557 123.636 121.334C123.636 119.111 125.436 117.31 127.659 117.31H158.846C161.069 117.31 162.87 119.111 162.87 121.334C162.87 123.557 161.069 125.358 158.846 125.358Z" fill="#008000"/>
<path d="M34.1927 125.358H4.02359C1.80044 125.358 0 123.557 0 121.334C0 119.111 1.80044 117.31 4.02359 117.31H34.1927C36.4158 117.31 38.2163 119.111 38.2163 121.334C38.2163 123.557 36.4158 125.358 34.1927 125.358Z" fill="#008000"/>
<path d="M158.845 142H4.02313C1.8626 142 0.109131 140.247 0.109131 138.086C0.109131 135.925 1.8626 134.172 4.02313 134.172H158.845C161.006 134.172 162.759 135.925 162.759 138.086C162.759 140.247 161.006 142 158.845 142Z" fill="#008000"/>
<path d="M127.424 52.3379C126.25 52.4474 125.076 52.6823 123.933 53.0111C121.584 53.6373 119.58 54.6393 117.843 56.017C116.34 57.2069 115.04 58.2402 114.414 59.8214C114.351 60.0719 114.148 61.1835 114.477 66.2717C114.649 69.0428 114.805 70.3422 114.962 71.6104C115.119 72.8629 115.259 74.0371 115.369 76.1663C115.447 77.7006 115.432 78.2642 115.385 79.7358C115.338 81.0823 115.259 83.3837 115.197 88.3936V88.9416C115.134 93.3565 115.103 95.5797 113.803 98.6326C112.551 101.576 110.5 104.284 108.011 106.273C106.57 107.416 103.533 109.467 99.306 110.218C97.9282 110.469 96.7384 110.5 95.0006 110.5C94.7031 110.5 94.4056 110.5 94.0769 110.5C93.0905 110.5 91.9946 110.39 89.3331 110.108C87.3761 109.905 86.1549 109.373 85.1686 108.903C81.5208 107.134 79.8612 104.159 79.3133 103.189C78.2173 101.232 77.5754 98.977 77.4502 96.6913C77.4502 96.6286 77.4502 96.566 77.4502 96.5034L77.278 88.2684V77.2152C77.278 72.4558 77.1058 68.307 76.7926 65.8333C76.6517 64.7217 76.5891 63.438 76.5108 62.0759C76.3856 59.7588 76.229 56.5963 75.6654 54.9681C74.6947 52.1969 73.9902 51.1167 72.2681 49.7076C72.1428 49.5981 71.908 49.5041 71.6418 49.3945C71.1095 49.1753 70.358 48.8622 69.403 48.9405C68.7768 48.9875 68.3228 49.191 68.1505 49.2693C67.3364 49.6607 66.8198 50.3339 66.1779 51.2732C64.5027 53.6999 64.1113 56.5963 64.0643 58.5846L63.7199 66.3187C63.8921 70.0291 64.0017 73.7866 64.0643 77.4814C64.0643 77.7788 64.1113 80.5343 63.6886 86.1078C63.6103 87.1568 63.4537 89.333 62.53 91.9632C61.9821 93.5288 61.2619 95.0161 60.3695 96.3938C59.3519 97.9594 58.162 99.3215 56.8313 100.449C53.9349 102.891 50.9759 103.658 48.831 104.222C47.6099 104.535 46.3731 104.77 45.1362 104.926C54.3576 115.416 67.8687 122.038 82.9454 122.038C110.75 122.038 133.295 99.4937 133.295 71.6887C133.295 64.7844 131.902 58.2245 129.397 52.2283C128.755 52.2283 128.113 52.2439 127.487 52.3065L127.424 52.3379Z" fill="#008000"/>
<path d="M45.6214 92.1041C47.3279 91.6657 48.0325 91.4309 48.7057 90.8673C49.2849 90.3663 49.6763 89.7713 49.8172 89.5678C50.1617 89.0355 50.4435 88.4406 50.6627 87.83C51.0384 86.7497 51.101 85.873 51.148 85.1685C51.5237 80.1742 51.4924 77.7006 51.4924 77.6849C51.4298 74.0214 51.3046 70.2796 51.1323 66.6005C51.1323 66.4126 51.1323 66.2247 51.1323 66.0369L51.4924 58.1619C51.5707 54.608 52.3848 49.1284 55.8135 44.1498C56.7842 42.7251 58.8351 39.7661 62.7804 37.9187C63.9702 37.3551 65.8959 36.6506 68.3226 36.4471C72.3149 36.1183 75.2739 37.3551 76.2602 37.7622C77.0743 38.0909 78.5616 38.7015 80.1272 39.9853C84.2448 43.32 85.9826 46.6078 87.4542 50.8349C88.6128 54.154 88.832 58.1932 88.9885 61.434C89.0512 62.5612 89.0981 63.6259 89.1764 64.2834C89.5521 67.305 89.7557 71.8922 89.7557 77.2309V88.1431L89.9279 96.112C89.9592 96.4565 90.0531 96.7852 90.2097 97.067C90.2723 97.1923 90.4758 97.5524 90.6168 97.6463H90.6637C92.3389 97.8342 93.7166 97.9751 94.0767 97.9907C95.8145 97.9907 96.5973 97.9907 97.0514 97.9125C98.6483 97.6307 99.8381 96.7539 100.151 96.5034C100.574 96.1746 101.607 95.2353 102.233 93.7636C102.531 93.0591 102.578 92.5425 102.625 88.8007V88.2527C102.703 83.1019 102.781 80.7378 102.828 79.3601C102.875 77.9824 102.875 77.8728 102.828 76.8865C102.734 75.1643 102.625 74.2719 102.484 73.1447C102.312 71.767 102.124 70.217 101.936 67.1015C101.482 59.8841 101.795 57.6296 102.703 55.3125C104.551 50.5844 107.964 47.8603 110.015 46.232C113.099 43.7741 116.637 42.0049 120.52 40.9716C121.099 40.7994 121.725 40.6742 122.351 40.5333C113.13 28.8852 98.8674 21.386 82.8514 21.386C55.0463 21.386 32.5017 43.9306 32.5017 71.7356C32.5017 78.9217 34.0203 85.7478 36.7288 91.9319C38.2475 92.3702 39.7817 92.6207 41.3317 92.6364C42.8034 92.6364 44.2124 92.4798 45.5901 92.1198L45.6214 92.1041Z" fill="#008000"/>
</svg>
