<svg width="250" height="36" viewBox="0 0 250 36" fill="none" xmlns="http://www.w3.org/2000/svg">
<path d="M9.538 31.6856C9.31674 31.6856 9.09147 31.6141 8.9024 31.4673C8.1783 30.9076 1.83839 25.7597 2.00734 17.738C2.19239 9.17266 9.84775 0 20.9506 0C31.3938 0 39.8939 7.96604 39.8939 17.7619C39.8939 25.8906 33.4615 31.1021 33.1879 31.3204C32.7454 31.6737 32.0937 31.6062 31.7357 31.1656C31.3777 30.729 31.4461 30.086 31.8926 29.7328C32.134 29.5383 37.8262 24.9301 37.8262 17.7619C37.8262 9.09328 30.2553 2.04013 20.9506 2.04013C11.0586 2.04013 4.23597 10.1808 4.07506 17.7817C3.92219 24.9301 9.92418 29.6653 10.1776 29.8637C10.6282 30.213 10.7046 30.852 10.3506 31.2966C10.1454 31.5546 9.84373 31.6856 9.538 31.6856Z" fill="white"/>
<path d="M40.8152 31.7809H32.8018C32.2306 31.7809 31.7679 31.3244 31.7679 30.7608C31.7679 30.1972 32.2306 29.7407 32.8018 29.7407H40.8152C41.3864 29.7407 41.849 30.1972 41.849 30.7608C41.849 31.3244 41.3864 31.7809 40.8152 31.7809Z" fill="white"/>
<path d="M8.78576 31.7809H1.03386C0.46262 31.7809 0 31.3244 0 30.7608C0 30.1972 0.46262 29.7407 1.03386 29.7407H8.78576C9.357 29.7407 9.81962 30.1972 9.81962 30.7608C9.81962 31.3244 9.357 31.7809 8.78576 31.7809Z" fill="white"/>
<path d="M40.8152 35.9999H1.03389C0.47875 35.9999 0.0281982 35.5554 0.0281982 35.0077C0.0281982 34.4599 0.47875 34.0154 1.03389 34.0154H40.8152C41.3704 34.0154 41.8209 34.4599 41.8209 35.0077C41.8209 35.5554 41.3704 35.9999 40.8152 35.9999Z" fill="white"/>
<path d="M32.7414 13.2687C32.4397 13.2965 32.138 13.356 31.8443 13.4394C31.2409 13.5981 30.726 13.8522 30.2795 14.2015C29.8933 14.5031 29.5594 14.7651 29.3985 15.166C29.3824 15.2295 29.3301 15.5113 29.4146 16.8012C29.4588 17.5038 29.499 17.8332 29.5393 18.1547C29.5795 18.4722 29.6157 18.7699 29.6439 19.3097C29.664 19.6987 29.66 19.8416 29.6479 20.2147C29.6358 20.556 29.6157 21.1395 29.5996 22.4096V22.5485C29.5835 23.6678 29.5755 24.2314 29.2416 25.0054C28.9198 25.7516 28.3928 26.4383 27.7532 26.9424C27.3831 27.2321 26.6026 27.7521 25.5165 27.9426C25.1625 28.0061 24.8568 28.014 24.4102 28.014C24.3338 28.014 24.2574 28.014 24.1729 28.014C23.9194 28.014 23.6379 27.9862 22.954 27.9148C22.4511 27.8632 22.1374 27.7282 21.8839 27.6092C20.9466 27.1607 20.5202 26.4065 20.3794 26.1604C20.0978 25.6643 19.9329 25.0927 19.9007 24.5133C19.9007 24.4974 19.9007 24.4815 19.9007 24.4656L19.8564 22.3779V19.5757C19.8564 18.369 19.8122 17.3172 19.7317 16.6901C19.6955 16.4083 19.6794 16.0828 19.6593 15.7375C19.6271 15.1501 19.5869 14.3483 19.4421 13.9355C19.1927 13.233 19.0116 12.9591 18.5691 12.6019C18.537 12.5741 18.4766 12.5503 18.4082 12.5225C18.2715 12.4669 18.0784 12.3876 17.833 12.4074C17.6721 12.4193 17.5554 12.4709 17.5111 12.4908C17.302 12.59 17.1692 12.7607 17.0043 12.9988C16.5738 13.614 16.4733 14.3483 16.4612 14.8524L16.3727 16.8131C16.417 17.7538 16.4451 18.7064 16.4612 19.6431C16.4612 19.7185 16.4733 20.4171 16.3647 21.8301C16.3445 22.0961 16.3043 22.6478 16.067 23.3146C15.9262 23.7115 15.7411 24.0886 15.5118 24.4378C15.2503 24.8348 14.9446 25.1801 14.6027 25.4658C13.8585 26.085 13.0982 26.2795 12.547 26.4224C12.2333 26.5018 11.9155 26.5613 11.5977 26.601C13.9671 29.2603 17.4387 30.9393 21.3127 30.9393C28.4571 30.9393 34.25 25.2237 34.25 18.1746C34.25 16.4242 33.8919 14.7611 33.2483 13.2409C33.0833 13.2409 32.9184 13.2449 32.7575 13.2608L32.7414 13.2687Z" fill="white"/>
<path d="M11.7224 23.3504C12.1609 23.2393 12.3419 23.1798 12.5149 23.0369C12.6637 22.9099 12.7643 22.759 12.8005 22.7074C12.889 22.5725 12.9614 22.4217 13.0177 22.2669C13.1143 21.993 13.1304 21.7707 13.1425 21.5921C13.239 20.326 13.231 19.6988 13.231 19.6949C13.2149 18.7661 13.1827 17.8175 13.1384 16.8847C13.1384 16.8371 13.1384 16.7895 13.1384 16.7418L13.231 14.7454C13.2511 13.8444 13.4603 12.4552 14.3412 11.193C14.5907 10.8318 15.1176 10.0816 16.1314 9.61328C16.4371 9.47039 16.9319 9.29178 17.5554 9.24018C18.5813 9.15683 19.3416 9.47039 19.595 9.57358C19.8042 9.65694 20.1864 9.81173 20.5886 10.1372C21.6466 10.9826 22.0932 11.8161 22.4713 12.8878C22.769 13.7293 22.8253 14.7533 22.8655 15.5749C22.8816 15.8607 22.8937 16.1306 22.9138 16.2973C23.0103 17.0633 23.0626 18.2263 23.0626 19.5798V22.3462L23.1069 24.3665C23.1149 24.4538 23.1391 24.5372 23.1793 24.6086C23.1954 24.6404 23.2477 24.7317 23.2839 24.7555H23.296C23.7264 24.8031 24.0804 24.8389 24.1729 24.8428C24.6195 24.8428 24.8206 24.8428 24.9373 24.823C25.3476 24.7515 25.6533 24.5293 25.7338 24.4658C25.8424 24.3824 26.1079 24.1443 26.2688 23.7712C26.3452 23.5925 26.3573 23.4616 26.3694 22.5129V22.374C26.3895 21.0682 26.4096 20.4688 26.4217 20.1196C26.4337 19.7703 26.4337 19.7425 26.4217 19.4924C26.3975 19.0558 26.3694 18.8296 26.3332 18.5438C26.2889 18.1945 26.2406 17.8016 26.1924 17.0117C26.0757 15.182 26.1562 14.6104 26.3895 14.023C26.8642 12.8243 27.7411 12.1337 28.2681 11.7209C29.0606 11.0977 29.9698 10.6492 30.9674 10.3873C31.1163 10.3436 31.2772 10.3118 31.4381 10.2761C29.0687 7.32309 25.4039 5.42188 21.2886 5.42188C14.1441 5.42188 8.35132 11.1374 8.35132 18.1866C8.35132 20.0084 8.74153 21.739 9.43747 23.3068C9.82768 23.4179 10.2219 23.4814 10.6202 23.4854C10.9983 23.4854 11.3604 23.4457 11.7144 23.3544L11.7224 23.3504Z" fill="white"/>
<path d="M59.356 22.0881H62.6426C63.3948 22.0881 63.8293 22.4255 63.8293 23.2153C63.8293 23.9575 63.3264 24.2513 62.6426 24.2513H59.356V26.6169C59.9272 26.5732 61.0697 26.4581 61.7978 26.3708C62.3006 26.3033 62.7793 26.2596 63.0529 26.2596C63.7368 26.2596 64.0586 26.7082 64.0586 27.3631C64.0586 27.9029 63.8534 28.1966 63.4431 28.3315C63.1012 28.4427 62.5742 28.5101 62.0512 28.5776C60.5427 28.78 54.77 29.3675 53.4666 29.3675C52.7143 29.3675 52.3483 28.919 52.3483 28.1728C52.3483 27.5853 52.6661 27.1805 53.2856 27.0932C53.8126 27.0257 54.2671 27.0257 54.9068 26.982C55.659 26.9384 56.3912 26.8907 57.1676 26.8233V24.2552H53.9051C53.1528 24.2552 52.7425 23.9179 52.7425 23.128C52.7425 22.3858 53.2212 22.0921 53.9051 22.0921H57.1676V20.2226H55.3654C53.72 20.2226 53.0603 19.5677 53.0603 17.9483V12.3637C53.0603 10.7642 53.7241 10.1132 55.3654 10.1132H61.2105C62.8558 10.1132 63.5155 10.7681 63.5155 12.3637V17.9483C63.5155 19.5717 62.8518 20.2226 61.2105 20.2226H59.36V22.0921L59.356 22.0881ZM57.1635 14.2927V12.1097H55.655C55.2688 12.1097 55.0154 12.3359 55.0154 12.7408V14.2967H57.1595L57.1635 14.2927ZM55.0194 17.6268C55.0194 18.0316 55.2688 18.2579 55.659 18.2579H57.1676V15.9598H55.0234V17.6268H55.0194ZM61.5685 12.7408C61.5685 12.3359 61.3392 12.1097 60.953 12.1097H59.356V14.2927H61.5685V12.7368V12.7408ZM59.356 15.9598V18.2579H60.953C61.3392 18.2579 61.5685 18.0316 61.5685 17.6268V15.9598H59.356ZM66.1142 15.5787C66.0016 15.4874 65.728 15.3088 65.5872 15.2175C65.2212 14.9714 65.016 14.7452 65.016 14.3602C65.016 13.7728 65.5873 13.2806 66.1585 13.2806C66.6372 13.2806 67.7113 14.0228 68.5802 14.6777C68.8538 14.4078 69.6985 13.5743 70.1571 12.9432C70.318 12.7408 70.4065 12.5384 70.4065 12.4233C70.4065 12.1534 70.1089 12.1295 69.9037 12.1295H65.3137C64.5816 12.1295 64.2638 11.7922 64.2638 11.0698C64.2638 10.395 64.6499 10.1013 65.3137 10.1013H71.0663C72.1605 10.1013 73.0978 10.3474 73.0978 11.6334C73.0978 12.0819 72.961 12.5106 72.6633 12.9829C71.9996 14.0427 70.837 15.1461 70.129 15.8446C70.6318 16.2257 70.9738 16.5194 70.9738 16.9917C70.9738 17.1505 70.9295 17.2854 70.8611 17.4204H71.364C72.6432 17.4204 73.6248 17.6228 73.6248 19.0874C73.6248 20.0996 73.2828 21.1157 72.9409 22.0841C72.78 22.5366 72.6231 23.0526 72.4622 23.3661C72.257 23.7472 72.0961 23.9536 71.6415 23.9536C71.1387 23.9536 70.4991 23.6837 70.4991 23.1201C70.4991 22.9176 70.6117 22.5326 70.8169 22.0841C70.9536 21.7706 71.2513 21.072 71.4324 20.5282C71.5249 20.2821 71.5691 20.0797 71.5691 19.9408C71.5691 19.6272 71.2031 19.5796 70.9536 19.5796H69.6985V27.6885C69.6985 30.1653 68.6727 30.2566 66.4803 30.2566H65.8648C64.839 30.2566 64.0143 30.1454 64.0143 28.9507C64.0143 28.2085 64.3563 27.8711 65.1769 27.8711C65.5873 27.8711 66.0217 27.8949 66.432 27.8949C67.1843 27.8949 67.4377 27.6488 67.4377 26.9503V19.5836H64.7907C63.9902 19.5836 63.7167 19.2025 63.7167 18.4563C63.7167 17.7578 64.1028 17.4204 64.7907 17.4204H68.4434C67.7113 16.7456 66.9832 16.2058 66.1142 15.5747V15.5787Z" fill="white"/>
<path d="M86.1115 21.1394C86.3166 21.4093 86.4977 21.7031 86.4977 22.0643C86.4977 22.6517 85.9707 23.259 85.3552 23.259C84.7397 23.259 84.4661 22.5604 84.1926 22.1317C83.7823 21.457 83.3921 20.7822 83.03 20.0837V29.3635C83.03 30.1732 82.6639 30.5344 81.8433 30.5344C81.091 30.5344 80.7692 30.0859 80.7692 29.3635V20.1511C80.2422 21.457 79.6509 22.7628 78.9187 23.9575C78.6452 24.4299 78.2107 25.0848 77.6395 25.0848C76.9757 25.0848 76.4528 24.3862 76.4528 23.7551C76.4528 23.5527 76.497 23.3264 76.6137 23.1478C76.9556 22.5842 77.4826 21.9531 77.8688 21.4133C79.0998 19.7899 79.9928 17.7657 80.6083 15.8288H77.8004C77.0481 15.8288 76.6579 15.4676 76.6579 14.7491C76.6579 14.0307 77.0441 13.6219 77.8004 13.6219H80.7692V10.403C80.7692 9.6131 81.1554 9.23206 81.9559 9.23206C82.7082 9.23206 83.03 9.70439 83.03 10.403V13.6219H85.5644C86.3166 13.6219 86.6827 14.0268 86.6827 14.769C86.6827 15.5112 86.2724 15.8288 85.5644 15.8288H83.03V16.4837C83.8989 18.1507 84.969 19.659 86.1115 21.1474V21.1394ZM95.6093 27.7401C95.6093 28.5498 95.4725 29.5421 94.672 29.9231C93.9639 30.2605 92.7088 30.2605 91.4537 30.2605C90.9267 30.2605 89.74 30.2367 89.4665 30.1256C89.0561 29.9469 88.8952 29.427 88.8952 28.9983C88.8952 28.2085 89.3498 27.8711 90.1061 27.8711C90.7699 27.8711 91.4054 27.9148 92.0692 27.9148C92.733 27.9148 93.1634 27.6885 93.1634 26.9701V16.0471H88.1188C87.2982 16.0471 87.0005 15.5747 87.0005 14.8087C87.0005 14.1101 87.4108 13.7291 88.1188 13.7291H93.1634V10.395C93.1634 9.51784 93.618 9.22412 94.4869 9.22412C95.2633 9.22412 95.6052 9.65279 95.6052 10.395V13.7291H96.9971C97.8178 13.7291 98.0471 14.2252 98.0471 14.9436C98.0471 15.662 97.7293 16.0471 96.9971 16.0471H95.6052V27.7361L95.6093 27.7401ZM88.7142 18.1666C89.0803 18.1666 89.378 18.3015 89.5831 18.6191C89.9492 19.139 90.2228 19.7463 90.4963 20.3099C90.9992 21.2784 91.7514 22.8779 91.7514 23.5289C91.7514 24.2274 91.0675 24.6323 90.4279 24.6323C89.7883 24.6323 89.6073 24.2949 89.0602 22.9414C88.7424 22.1317 88.3964 21.3419 88.0102 20.5758C87.6441 19.9209 87.4631 19.5637 87.4631 19.1787C87.4631 18.5476 88.1269 18.1666 88.7182 18.1666H88.7142Z" fill="white"/>
<path d="M112.871 27.74H121.271C122.003 27.74 122.457 28.0338 122.457 28.7998C122.457 29.5658 122.023 29.9469 121.247 29.9469H112.505C109.834 29.9469 107.119 29.4269 105.039 27.6964C104.56 28.4188 103.989 29.0935 103.393 29.7246C103.096 30.0382 102.778 30.312 102.343 30.312C101.68 30.312 101.044 29.7048 101.044 29.03C101.044 28.649 101.294 28.3751 101.547 28.129C102.255 27.4305 102.939 26.7319 103.466 25.8785C102.939 25.1125 102.187 23.5606 101.821 22.2746C101.708 21.826 101.615 21.3974 101.615 21.06C101.615 20.5202 102.094 20.1828 102.641 20.1828C103.349 20.1828 103.486 20.5877 103.599 21.1751C103.78 22.0086 104.077 22.8183 104.443 23.5844C104.761 22.6159 105.151 20.8377 105.151 19.8216C105.151 19.393 104.878 19.1905 104.468 19.1905H103.257C102.207 19.1905 101.43 18.8532 101.43 17.6823C101.43 16.8249 102.026 15.9716 103.164 14.507C103.393 14.1934 104.375 12.8399 104.375 12.57C104.375 12.3438 104.17 12.2565 103.965 12.2565H102.094C101.342 12.2565 101 11.8953 101 11.1531C101 10.4545 101.41 10.1171 102.094 10.1171H105.429C105.908 10.1171 106.298 10.1409 106.66 10.4108C107.026 10.6807 107.187 11.1094 107.187 11.5142C107.187 12.1453 106.982 12.7764 106.684 13.3162C106.089 14.4435 105.2 15.5231 104.403 16.5153C104.335 16.6066 104.266 16.7416 104.266 16.8527C104.266 17.0988 104.584 17.0988 104.769 17.0988H105.34C106.64 17.0988 107.304 17.5711 107.304 18.9246C107.304 21.1553 106.801 23.6558 106.024 25.7475C107.806 27.4821 110.498 27.752 112.871 27.752V27.74ZM118.6 10.8951C120.358 10.8951 120.836 11.3674 120.836 13.1019V14.0466H121.544C122.184 14.0466 122.413 14.4276 122.413 15.0388C122.413 15.5786 122.095 15.9398 121.544 15.9398H120.836V16.817C120.836 18.5515 120.358 19.0238 118.6 19.0238H115.586V20.2185H120.494C121.11 20.2185 121.452 20.4884 121.452 21.1195C121.452 21.707 121.041 21.9531 120.494 21.9531H115.586V23.4177H121.271C121.979 23.4177 122.297 23.7114 122.297 24.4099C122.297 25.1085 121.91 25.3109 121.271 25.3109H115.586V26.6168C115.586 27.359 115.039 27.5178 114.4 27.5178C113.829 27.5178 113.35 27.2241 113.35 26.6168V25.3109H108.281C107.573 25.3109 107.255 25.041 107.255 24.3425C107.255 23.6439 107.641 23.4177 108.281 23.4177H113.35V21.9531H108.989C108.35 21.9531 108.032 21.6832 108.032 21.0282C108.032 20.4646 108.466 20.2185 108.989 20.2185H113.35V19.0238H109.448C108.808 19.0238 108.535 18.7778 108.535 18.1467C108.535 17.5156 108.876 17.337 109.448 17.337H113.35V15.9398H108.305C107.621 15.9398 107.255 15.6699 107.255 14.9714C107.255 14.2728 107.666 14.0466 108.305 14.0466H113.35V12.6494H109.492C108.828 12.6494 108.535 12.3557 108.535 11.7048C108.535 11.1411 108.969 10.8951 109.492 10.8951H113.35V10.1727C113.35 9.40664 113.829 9.22803 114.561 9.22803C115.224 9.22803 115.586 9.49793 115.586 10.1528V10.8951H118.6ZM115.586 14.0466H118.76V13.1892C118.76 12.8082 118.511 12.5581 118.121 12.5581H115.586V14.0466ZM115.586 17.4243H118.121C118.507 17.4243 118.76 17.1782 118.76 16.7932V15.9359H115.586V17.4243Z" fill="white"/>
<path d="M137.39 26.9304H145.584C146.473 26.9304 146.771 27.3352 146.771 28.1687C146.771 28.9348 146.337 29.2722 145.584 29.2722H126.545C125.676 29.2722 125.358 28.8673 125.358 28.0338C125.358 27.2439 125.792 26.9304 126.545 26.9304H134.787V13.0781H127.413C126.545 13.0781 126.227 12.6494 126.227 11.8397C126.227 11.03 126.661 10.7363 127.413 10.7363H144.788C145.677 10.7363 145.975 11.1412 145.975 11.9747C145.975 12.7407 145.54 13.0781 144.788 13.0781H137.39V26.9304Z" fill="white"/>
<path d="M157.89 20.937C158.071 21.1632 158.208 21.4331 158.208 21.703C158.208 22.2428 157.729 22.7826 157.158 22.7826C156.289 22.7826 155.444 20.7782 155.151 20.0797V29.3833C155.151 30.1732 154.785 30.5304 153.964 30.5304C153.212 30.5304 152.938 30.0581 152.938 29.3833V21.4093C152.572 22.4453 151.683 24.922 150.609 24.922C149.945 24.922 149.446 24.1798 149.446 23.5725C149.446 23.1002 149.72 22.6953 149.993 22.3341C151.385 20.3734 152.323 18.1665 152.914 15.8684H150.927C150.126 15.8684 149.764 15.5072 149.764 14.6975C149.764 13.9553 150.219 13.6378 150.927 13.6378H152.934V10.4188C152.934 9.65276 153.276 9.27173 154.077 9.27173C154.829 9.27173 155.151 9.72024 155.151 10.4188V13.6378H156.659C157.46 13.6378 157.709 14.0903 157.709 14.8087C157.709 15.5271 157.367 15.8684 156.659 15.8684H155.151V16.7694C155.971 18.5039 156.659 19.4724 157.89 20.937ZM170.586 26.2993C170.996 26.6605 171.294 26.974 171.294 27.4464C171.294 28.0536 170.723 28.8435 170.039 28.8435C169.102 28.8435 167.69 26.7954 167.187 26.0731C166.455 25.0133 165.863 23.9337 165.36 22.7826V29.3595C165.36 30.1692 164.974 30.5304 164.174 30.5304C163.373 30.5304 163.08 30.0819 163.08 29.3595V22.7152C162.327 24.2473 161.414 25.688 160.296 26.974C159.725 27.6726 158.767 28.8197 158.035 28.8197C157.303 28.8197 156.736 28.1211 156.736 27.4464C156.736 26.9979 157.078 26.6565 157.399 26.3668C158.884 25.1046 159.91 23.9774 161.008 22.3579C161.462 21.6832 161.877 20.9846 162.219 20.2424H158.268C157.468 20.2424 157.082 19.8812 157.082 19.0953C157.082 18.3531 157.56 18.0594 158.268 18.0594H163.084V15.0428H160.368C160.07 15.6303 159.753 16.2137 159.387 16.7535C159.157 17.0671 158.86 17.3608 158.449 17.3608C157.854 17.3608 157.238 16.8409 157.238 16.2574C157.238 15.8962 157.468 15.6025 157.673 15.3326C158.747 13.9116 159.226 12.4947 159.636 10.784C159.749 10.2442 159.978 9.72421 160.642 9.72421C161.169 9.72421 161.76 10.0616 161.76 10.649C161.76 11.3476 161.462 12.1573 161.257 12.832H163.084V10.4426C163.084 9.65276 163.47 9.27173 164.294 9.27173C165.047 9.27173 165.368 9.74405 165.368 10.4426V12.832H169.456C170.256 12.832 170.618 13.1932 170.618 14.0029C170.618 14.7452 170.16 15.0389 169.456 15.0389H165.368V18.0554H170.027C170.827 18.0554 171.214 18.3928 171.214 19.2025C171.214 19.9447 170.759 20.2384 170.027 20.2384H166.193C167.199 22.5366 168.752 24.6084 170.598 26.2993H170.586Z" fill="white"/>
<path d="M185.494 25.8032C186.134 25.8032 186.432 26.3906 186.432 26.9741C186.432 28.0775 185.269 28.1013 184.263 28.3037C182.095 28.7523 179.859 29.1134 177.642 29.4072C176.934 29.4984 175.791 29.7009 175.083 29.7009C174.375 29.7009 174.009 29.0261 174.009 28.3712C174.009 27.6727 174.396 27.3591 175.083 27.2678C176.339 27.0892 177.618 26.9979 178.897 26.8391V20.5322H175.679C174.878 20.5322 174.516 20.1512 174.516 19.3613C174.516 18.6191 174.951 18.2817 175.679 18.2817H184.537C185.338 18.2817 185.7 18.6627 185.7 19.4526C185.7 20.1948 185.265 20.5322 184.537 20.5322H181.319V26.5018C182.119 26.3668 184.947 25.8032 185.494 25.8032ZM185.949 10.6451C185.949 9.7441 186.267 9.31543 187.228 9.31543C188.19 9.31543 188.483 9.76791 188.483 10.6649V11.0023C188.483 11.7009 188.483 12.3756 188.508 13.0742H194.304C195.081 13.0742 195.491 13.4552 195.491 14.2213C195.491 14.9873 195.032 15.3247 194.304 15.3247H188.552C188.596 18.4762 188.918 21.9015 190.105 24.8744C190.402 25.6405 191.336 27.5774 192.297 27.5774C193.029 27.5774 193.254 26.6327 193.439 25.8429C193.6 25.188 193.781 24.6482 194.582 24.6482C195.197 24.6482 195.676 25.0094 195.676 25.6603C195.676 26.605 195.173 27.9346 194.719 28.7681C194.24 29.6453 193.464 30.3439 192.414 30.3439C190.495 30.3439 189.171 28.5181 188.375 27.0098C186.573 23.6083 186.299 19.1033 186.07 15.3207H175.248C174.448 15.3207 174.062 14.9397 174.062 14.1498C174.062 13.4076 174.52 13.0702 175.248 13.0702H186.001C185.977 12.2605 185.957 11.4469 185.957 10.6371L185.949 10.6451ZM193.025 10.4863C193.528 10.915 194.099 11.4111 194.099 11.9946C194.099 12.6257 193.323 12.9869 192.776 12.9869C192.068 12.9869 191.247 12.0184 190.744 11.5659C190.358 11.2285 190.012 10.8912 190.012 10.4625C190.012 9.85523 190.676 9.47023 191.243 9.47023C191.858 9.47023 192.567 10.0775 193.025 10.4824V10.4863Z" fill="white"/>
<path d="M199.558 18.0118C198.826 18.0118 198.396 17.2219 198.396 16.5908C198.396 15.8923 198.85 15.6462 199.445 15.4199C202.688 14.2252 204.924 12.3796 207.254 9.97033C207.825 9.36305 208.304 9.06934 209.173 9.06934C210.198 9.06934 210.657 9.51785 211.526 10.4188C213.763 12.717 215.887 14.2689 218.944 15.5073C219.491 15.7335 219.95 16.0034 219.95 16.6345C219.95 17.3092 219.447 18.0554 218.719 18.0554C217.991 18.0554 216.047 16.9084 215.339 16.4797C215.339 17.2457 214.905 17.5831 214.177 17.5831H204.293C203.585 17.5831 203.106 17.2894 203.106 16.5472V16.4122C202.101 16.9997 200.343 18.0118 199.566 18.0118H199.558ZM205.906 29.431C203.943 29.5421 200.817 29.7247 200.334 29.7247C199.534 29.7247 199.124 29.296 199.124 28.5101C199.124 27.9703 199.373 27.4504 199.968 27.4067C200.721 27.3392 201.497 27.3392 202.249 27.3392C203.207 25.696 204.188 24.0052 204.808 22.227H200.061C199.26 22.227 198.874 21.846 198.874 21.0561C198.874 20.3139 199.353 19.9765 200.061 19.9765H218.232C219.032 19.9765 219.419 20.3575 219.419 21.1474C219.419 21.9373 218.94 22.227 218.232 22.227H207.503C206.751 23.9615 205.838 25.6285 204.876 27.2479C208.05 27.1368 211.176 26.9542 214.374 26.7518C213.759 26.0294 213.119 25.3547 212.479 24.7037C212.23 24.4338 211.976 24.1401 211.976 23.7591C211.976 23.1518 212.66 22.6557 213.256 22.6557C213.666 22.6557 213.988 22.9018 214.281 23.1756C215.034 23.8742 215.742 24.6164 216.426 25.3825C217.041 26.0572 218.984 28.1966 218.984 29.0301C218.984 29.7287 218.139 30.2685 217.5 30.2685C217.021 30.2685 216.747 29.9549 216.542 29.5937C216.361 29.2801 216.156 28.9864 215.927 28.6927C212.592 28.9864 209.261 29.2325 205.906 29.4349V29.431ZM213.779 15.4438C212.25 14.384 210.653 12.9869 209.623 11.7485C209.486 11.5699 209.374 11.5024 209.189 11.5024C209.004 11.5024 208.871 11.6374 208.593 11.9549C207.567 13.1258 206.059 14.4793 204.599 15.4477H213.775L213.779 15.4438Z" fill="white"/>
<path d="M228.711 29.2959C228.711 30.1969 228.277 30.4668 227.412 30.4668C226.635 30.4668 226.318 30.0144 226.318 29.2959V21.9292C225.61 22.5603 224.584 23.4613 223.876 23.4613C223.212 23.4613 222.665 22.7389 222.665 22.1118C222.665 21.9094 222.709 21.707 222.826 21.5244C223.123 21.0719 224.266 20.3972 224.745 20.0598C226.253 19 227.577 17.6029 228.558 16.0271C228.808 15.5985 228.856 15.5072 228.856 15.3524C228.856 14.9714 228.446 14.9714 228.172 14.9714H224.065C223.288 14.9714 222.854 14.634 222.854 13.8441C222.854 13.1019 223.357 12.8082 224.065 12.8082H226.302V10.3989C226.302 9.54159 226.736 9.22803 227.581 9.22803C228.357 9.22803 228.699 9.65669 228.699 10.3989V12.8082H229.451C230.614 12.8082 231.483 13.2368 231.483 14.5189C231.483 16.0271 230.272 17.6029 229.359 18.7778C230.091 19.6549 230.956 20.421 231.825 21.187C232.054 21.3894 232.279 21.6593 232.279 21.9967C232.279 22.5841 231.732 23.1914 231.137 23.1914C230.268 23.1914 229.198 21.5919 228.715 20.9608V29.2959H228.711ZM242.501 15.4437C243.346 15.4437 243.732 15.8485 243.732 16.6821C243.732 17.4719 243.254 17.8093 242.501 17.8093H238.849V27.3828H242.912C243.756 27.3828 244.167 27.744 244.167 28.5775C244.167 29.3674 243.664 29.681 242.912 29.681H232.046C231.201 29.681 230.698 29.3674 230.698 28.4862C230.698 27.6527 231.294 27.3828 232.046 27.3828H236.362V17.8093H232.959C232.114 17.8093 231.748 17.4044 231.748 16.5709C231.748 15.8049 232.207 15.4437 232.959 15.4437H236.362V10.4426C236.362 9.54159 236.841 9.24787 237.686 9.24787C238.487 9.24787 238.849 9.67654 238.849 10.4426V15.4437H242.501Z" fill="white"/>
</svg>
