<svg width="40" height="32" viewBox="0 0 40 32" fill="none" xmlns="http://www.w3.org/2000/svg">
<path d="M34.2993 18.8834H3.16706C1.42518 18.8834 0 17.4583 0 15.7164C0 13.9745 1.42518 12.5493 3.16706 12.5493H34.2993C36.0411 12.5493 37.4663 13.9745 37.4663 15.7164C37.4663 17.4583 36.0411 18.8834 34.2993 18.8834Z" fill="white"/>
<path d="M24.2597 31.4885C23.4363 31.4885 22.6445 31.1718 22.0111 30.5701C20.7759 29.3349 20.7759 27.3397 22.0111 26.1045L32.3674 15.7482L22.0111 5.39192C20.7759 4.15677 20.7759 2.16152 22.0111 0.926366C23.2462 -0.308789 25.2415 -0.308789 26.4766 0.926366L39.0815 13.5313C39.6833 14.133 40 14.9248 40 15.7799C40 16.635 39.6516 17.4268 39.0815 18.0285L26.4766 30.6334C25.8432 31.2668 25.0515 31.5519 24.228 31.5519L24.2597 31.4885Z" fill="white"/>
</svg>
