<svg width="15" height="12" viewBox="0 0 15 12" fill="none" xmlns="http://www.w3.org/2000/svg">
<path d="M12.545 6.90667H1.15835C0.521259 6.90667 0 6.38541 0 5.74832C0 5.11122 0.521259 4.58997 1.15835 4.58997H12.545C13.1821 4.58997 13.7033 5.11122 13.7033 5.74832C13.7033 6.38541 13.1821 6.90667 12.545 6.90667Z" fill="#008000"/>
<path d="M8.87298 11.5169C8.57181 11.5169 8.28222 11.4011 8.05055 11.181C7.59879 10.7292 7.59879 9.99948 8.05055 9.54773L11.8384 5.75991L8.05055 1.9721C7.59879 1.52034 7.59879 0.790576 8.05055 0.338818C8.50231 -0.112939 9.23207 -0.112939 9.68383 0.338818L14.2941 4.94906C14.5142 5.16915 14.63 5.45874 14.63 5.77149C14.63 6.08425 14.5026 6.37384 14.2941 6.59392L9.68383 11.2042C9.45216 11.4358 9.16257 11.5401 8.8614 11.5401L8.87298 11.5169Z" fill="#008000"/>
</svg>
